<svg width="18" height="18" viewBox="0 0 18 18" fill="none" xmlns="http://www.w3.org/2000/svg">
<path d="M2.82397 0.632012L8.99997 6.80801L15.144 0.664012C15.2797 0.51956 15.4432 0.404004 15.6246 0.324272C15.8061 0.24454 16.0018 0.202275 16.2 0.200012C16.6243 0.200012 17.0313 0.368583 17.3313 0.668641C17.6314 0.9687 17.8 1.37567 17.8 1.80001C17.8037 1.99618 17.7673 2.19103 17.693 2.37262C17.6187 2.55421 17.5081 2.71871 17.368 2.85601L11.144 9.00001L17.368 15.224C17.6317 15.482 17.7863 15.8314 17.8 16.2C17.8 16.6244 17.6314 17.0313 17.3313 17.3314C17.0313 17.6314 16.6243 17.8 16.2 17.8C15.9961 17.8085 15.7926 17.7744 15.6026 17.7001C15.4125 17.6257 15.24 17.5126 15.096 17.368L8.99997 11.192L2.83997 17.352C2.70478 17.4916 2.54327 17.6031 2.36477 17.68C2.18627 17.7569 1.99431 17.7977 1.79997 17.8C1.37562 17.8 0.968655 17.6314 0.668596 17.3314C0.368538 17.0313 0.199967 16.6244 0.199967 16.2C0.196237 16.0038 0.232632 15.809 0.306919 15.6274C0.381206 15.4458 0.491819 15.2813 0.631967 15.144L6.85597 9.00001L0.631967 2.77601C0.368263 2.51803 0.213631 2.16867 0.199967 1.80001C0.199967 1.37567 0.368538 0.9687 0.668596 0.668641C0.968655 0.368583 1.37562 0.200012 1.79997 0.200012C2.18397 0.204812 2.55197 0.360012 2.82397 0.632012Z" fill="black"/>
</svg>
